# xmcd
#
# Track frame offsets:
#	150
#	14200
#	27347
#	40370
#	52307
#	65840
#	79170
#	92040
#	105250
#	118580
#	132425
#	146705
#	161205
#	174527
#	187365
#	200705
#	213782
#	226902
#	243770
#	257195
#	271067
#
# Disc length: 3783 seconds
#
# Revision: 1
# Processed by: cddbd v1.4PL0 Copyright (c) Steve Scherf et al.
# Submitted via: audiograbber 1.80.04
#
DISCID=410ec515
DTITLE=Tiny Grimes - Vol. 4: 1950-1954
DYEAR=1900
DGENRE=
TTITLE0=Jackie's Dance
TTITLE1=Blues for Garroway
TTITLE2=Blues Round-Up
TTITLE3=Solitude
TTITLE4=Tiny's Boogie Woogie
TTITLE5=Rockin' the Blues Away
TTITLE6=Why Did You Waste My Time
TTITLE7=Why Did You Waste My Time (Alt. Take)
TTITLE8=Coronation Jump (Tiny's Jump)
TTITLE9=Coronation Jump
TTITLE10=Coronation Jump (Tiny's Jump) (Alt. Take)
TTITLE11=No Hug No Kiss
TTITLE12=Begin the Beguine
TTITLE13=The Man I Love
TTITLE14=Frankie and Johnny (Boogie) (Traditional)
TTITLE15=Frankie and Johnny (Boogie) (Alt. Take)
TTITLE16=Call of the Wild
TTITLE17=Call of the Wild (Alt. Take)
TTITLE18=Call of the Wild (2nd Alt. Take)
TTITLE19=Ho-Ho-Ho!
TTITLE20=Pert Skirt
EXTD=
EXTT0=
EXTT1=
EXTT2=
EXTT3=
EXTT4=
EXTT5=
EXTT6=
EXTT7=
EXTT8=
EXTT9=
EXTT10=
EXTT11=
EXTT12=
EXTT13=
EXTT14=
EXTT15=
EXTT16=
EXTT17=
EXTT18=
EXTT19=
EXTT20=
PLAYORDER=
